<?xml version="1.0" standalone="no"?>
<!DOCTYPE svg PUBLIC "-//W3C//DTD SVG 20010904//EN"
 "http://www.w3.org/TR/2001/REC-SVG-20010904/DTD/svg10.dtd">
<svg version="1.0" xmlns="http://www.w3.org/2000/svg"
 width="25.000000pt" height="25.000000pt" viewBox="0 0 25.000000 25.000000"
 preserveAspectRatio="xMidYMid meet">

<g transform="translate(0.000000,25.000000) scale(0.100000,-0.100000)"
fill="#000000" stroke="none">
<path d="M0 128 l0 -123 125 0 125 0 0 123 c0 111 -7 141 -25 112 -8 -13 -192
-13 -200 0 -18 29 -25 -1 -25 -112z m220 47 c0 -19 -5 -35 -11 -35 -6 0 -8 8
-5 18 6 16 5 16 -8 0 -7 -10 -19 -18 -26 -18 -7 0 -19 8 -26 18 -13 16 -14 16
-8 0 5 -16 -1 -18 -53 -18 l-59 0 4 35 4 35 94 0 94 0 0 -35z m0 -100 c0 -38
-19 -49 -21 -12 l-2 22 -4 -22 c-2 -13 -11 -23 -19 -23 -8 0 -15 10 -15 23
l-2 22 -4 -22 c-6 -30 -33 -30 -34 0 l-2 22 -4 -22 c-3 -16 -11 -23 -29 -23
-18 0 -24 6 -25 23 l-2 22 -4 -22 c-7 -36 -23 -27 -23 12 l0 35 95 0 95 0 0
-35z"/>
</g>
</svg>
